<svg width="376" height="134" viewBox="0 0 376 134" fill="none" xmlns="http://www.w3.org/2000/svg">
<path d="M138.551 90.9704C134.223 90.9704 129.987 90.4384 125.85 89.3801C121.725 88.3043 118.439 86.9478 116 85.3107L121.029 74.3653C123.347 75.8621 126.152 77.09 129.443 78.0372C132.734 78.9726 135.961 79.4404 139.131 79.4404C145.527 79.4404 148.725 77.8501 148.725 74.6694C148.725 73.1726 147.851 72.0968 146.106 71.4419C144.357 70.7871 141.68 70.2374 138.064 69.7814C133.8 69.1265 130.277 68.3782 127.496 67.5362C124.726 66.6826 122.327 65.1857 120.288 63.0458C118.26 60.8942 117.252 57.8304 117.252 53.8545C117.252 50.5335 118.202 47.5867 120.102 45.0141C122.003 42.4414 124.772 40.4418 128.423 39.0035C132.067 37.571 136.378 36.8519 141.355 36.8519C145.029 36.8519 148.691 37.2612 152.341 38.068C155.986 38.8807 159.004 40.0034 161.403 41.4358L156.374 52.2875C151.785 49.6857 146.779 48.3818 141.355 48.3818C138.122 48.3818 135.7 48.8438 134.078 49.7618C132.467 50.668 131.668 51.8374 131.668 53.2699C131.668 54.8953 132.537 56.0295 134.286 56.6844C136.031 57.3392 138.812 57.959 142.63 58.532C146.877 59.2512 150.354 60.023 153.059 60.8473C155.777 61.6601 158.135 63.1394 160.128 65.291C162.133 67.431 163.141 70.4245 163.141 74.2718C163.141 77.5344 162.174 80.4344 160.244 82.972C158.309 85.5153 155.481 87.4857 151.762 88.889C148.053 90.2747 143.65 90.9704 138.551 90.9704Z" fill="black"/>
<path d="M193.746 90.9704C188.195 90.9704 183.206 89.8186 178.774 87.5091C174.353 85.2055 170.899 82.0013 168.414 77.8968C165.94 73.7807 164.705 69.1207 164.705 63.9111C164.705 58.7075 165.94 54.0533 168.414 49.9489C170.899 45.8327 174.353 42.6227 178.774 40.3131C183.206 38.0095 188.195 36.8519 193.746 36.8519C199.227 36.8519 204.019 38.0095 208.115 40.3131C212.224 42.6227 215.213 45.9262 217.085 50.2295L205.357 56.5909C202.652 51.7731 198.752 49.3642 193.653 49.3642C189.713 49.3642 186.451 50.668 183.873 53.2699C181.288 55.8776 180.002 59.4208 180.002 63.9111C180.002 68.4015 181.288 71.9564 183.873 74.5758C186.451 77.1835 189.713 78.4815 193.653 78.4815C198.81 78.4815 202.715 76.0668 205.357 71.2314L217.085 77.6863C215.213 81.8669 212.224 85.1235 208.115 87.4623C204.019 89.8011 199.227 90.9704 193.746 90.9704Z" fill="black"/>
<path d="M272.969 64.0982C272.969 64.3029 272.865 65.677 272.668 68.2144H233.267C233.974 71.477 235.654 74.0496 238.296 75.9323C240.939 77.8209 244.23 78.7622 248.17 78.7622C250.887 78.7622 253.292 78.3588 255.378 77.5461C257.475 76.7392 259.434 75.4528 261.241 73.6871L269.284 82.4808C264.37 88.1405 257.197 90.9704 247.776 90.9704C241.9 90.9704 236.703 89.8186 232.178 87.5091C227.664 85.2055 224.182 82.0013 221.725 77.8968C219.28 73.7807 218.063 69.1207 218.063 63.9111C218.063 58.7659 219.268 54.1293 221.679 49.9956C224.101 45.8501 227.426 42.6227 231.645 40.3131C235.874 38.0095 240.614 36.8519 245.852 36.8519C250.951 36.8519 255.563 37.9628 259.689 40.1729C263.826 42.3888 267.07 45.5695 269.423 49.715C271.787 53.8487 272.969 58.6431 272.969 64.0982ZM245.945 48.3818C242.526 48.3818 239.652 49.3583 237.323 51.3053C235.005 53.2582 233.58 55.9301 233.058 59.3272H258.715C258.205 56.0062 256.78 53.3576 254.451 51.3755C252.133 49.3816 249.294 48.3818 245.945 48.3818Z" fill="black"/>
<path d="M310.824 36.8519C317.279 36.8519 322.494 38.8105 326.468 42.7222C330.437 46.622 332.425 52.4162 332.425 60.099V90.1987H317.314V62.4378C317.314 58.2748 316.41 55.1759 314.602 53.1295C312.794 51.0715 310.181 50.0424 306.768 50.0424C302.95 50.0424 299.914 51.2351 297.66 53.6206C295.4 55.9945 294.276 59.526 294.276 64.2152V90.1987H279.165V37.6236H293.581V43.7745C295.585 41.5644 298.077 39.8571 301.044 38.6527C304.01 37.4541 307.266 36.8519 310.824 36.8519Z" fill="black"/>
<path d="M375.812 87.6494C374.312 88.7603 372.481 89.5905 370.32 90.1518C368.17 90.6955 365.899 90.9704 363.506 90.9704C357.306 90.9704 352.508 89.38 349.113 86.1993C345.729 83.007 344.037 78.3119 344.037 72.1201V50.5334H335.995V38.793H344.037V26H359.148V38.793H372.127V50.5334H359.148V71.933C359.148 74.149 359.71 75.8563 360.84 77.0549C361.964 78.2593 363.563 78.8557 365.638 78.8557C368.013 78.8557 370.047 78.2125 371.733 76.9145L375.812 87.6494Z" fill="black"/>
<path d="M129.588 134C127.253 134 124.964 133.707 122.728 133.134C120.486 132.544 118.701 131.813 117.374 130.936L120.109 125.019C121.36 125.832 122.873 126.492 124.652 127.007C126.442 127.51 128.198 127.756 129.913 127.756C133.372 127.756 135.104 126.89 135.104 125.159C135.104 124.353 134.629 123.774 133.69 123.429C132.746 123.072 131.292 122.768 129.333 122.517C127.027 122.178 125.121 121.78 123.609 121.324C122.108 120.856 120.81 120.049 119.715 118.892C118.614 117.722 118.069 116.062 118.069 113.91C118.069 112.104 118.579 110.507 119.599 109.116C120.63 107.712 122.137 106.631 124.118 105.865C126.094 105.087 128.429 104.695 131.118 104.695C133.111 104.695 135.087 104.924 137.051 105.374C139.027 105.812 140.667 106.414 141.965 107.175L139.23 113.045C136.756 111.642 134.05 110.94 131.118 110.94C129.368 110.94 128.059 111.191 127.178 111.688C126.309 112.174 125.88 112.805 125.88 113.583C125.88 114.471 126.349 115.097 127.294 115.454C128.232 115.799 129.733 116.126 131.79 116.436C134.108 116.828 135.997 117.249 137.468 117.699C138.934 118.137 140.209 118.939 141.292 120.108C142.37 121.266 142.915 122.879 142.915 124.949C142.915 126.714 142.388 128.288 141.339 129.673C140.284 131.047 138.755 132.117 136.75 132.878C134.739 133.626 132.352 134 129.588 134Z" fill="black"/>
<path d="M161.362 134C158.396 134 155.73 133.38 153.366 132.129C151.002 130.866 149.154 129.129 147.827 126.913C146.495 124.686 145.834 122.166 145.834 119.36C145.834 116.541 146.495 114.021 147.827 111.805C149.154 109.578 151.002 107.841 153.366 106.59C155.73 105.327 158.396 104.695 161.362 104.695C164.329 104.695 166.977 105.327 169.312 106.59C171.659 107.841 173.495 109.578 174.828 111.805C176.155 114.021 176.821 116.541 176.821 119.36C176.821 122.166 176.155 124.686 174.828 126.913C173.495 129.129 171.659 130.866 169.312 132.129C166.977 133.38 164.329 134 161.362 134ZM161.362 127.241C163.46 127.241 165.187 126.528 166.531 125.09C167.875 123.657 168.547 121.745 168.547 119.36C168.547 116.962 167.875 115.045 166.531 113.606C165.187 112.174 163.46 111.454 161.362 111.454C159.259 111.454 157.527 112.174 156.171 113.606C154.809 115.045 154.131 116.962 154.131 119.36C154.131 121.745 154.809 123.657 156.171 125.09C157.527 126.528 159.259 127.241 161.362 127.241Z" fill="black"/>
<path d="M191.248 105.748H198.479V112.11H191.457V133.579H183.275V112.11H178.918V105.748H183.275V104.486C183.275 101.246 184.225 98.6738 186.126 96.7677C188.026 94.8675 190.703 93.9144 194.168 93.9144C195.402 93.9144 196.567 94.0489 197.668 94.312C198.763 94.5634 199.684 94.9376 200.426 95.4346L198.271 101.422C197.326 100.755 196.219 100.416 194.956 100.416C192.482 100.416 191.248 101.79 191.248 104.532V105.748Z" fill="black"/>
<path d="M220.757 132.199C219.952 132.807 218.961 133.263 217.791 133.555C216.614 133.848 215.386 134 214.106 134C210.733 134 208.132 133.134 206.295 131.404C204.47 129.673 203.56 127.141 203.56 123.803V112.109H199.203V105.748H203.56V98.8251H211.742V105.748H218.764V112.109H211.742V123.686C211.742 124.89 212.043 125.814 212.645 126.469C213.26 127.124 214.129 127.451 215.241 127.451C216.539 127.451 217.64 127.095 218.555 126.375L220.757 132.199Z" fill="black"/>
<path d="M270.654 105.116L260.433 133.579H252.576L246.225 115.898L239.666 133.579H231.809L221.635 105.116H229.353L236.004 124.364L242.934 105.116H249.841L256.562 124.364L263.422 105.116H270.654Z" fill="black"/>
<path d="M285.863 104.695C290.22 104.695 293.569 105.748 295.922 107.853C298.268 109.946 299.445 113.109 299.445 117.348V133.579H291.773V130.024C290.244 132.679 287.375 134 283.175 134C281.008 134 279.13 133.632 277.543 132.901C275.949 132.152 274.738 131.135 273.904 129.837C273.07 128.528 272.652 127.042 272.652 125.37C272.652 122.739 273.632 120.663 275.596 119.149C277.572 117.623 280.625 116.857 284.751 116.857H291.263C291.263 115.068 290.713 113.688 289.618 112.717C288.534 111.735 286.912 111.244 284.751 111.244C283.25 111.244 281.772 111.49 280.324 111.969C278.87 112.454 277.641 113.103 276.639 113.91L273.695 108.133C275.225 107.046 277.062 106.204 279.211 105.608C281.373 105 283.592 104.695 285.863 104.695ZM285.237 128.457C286.628 128.457 287.862 128.13 288.946 127.475C290.023 126.82 290.8 125.856 291.263 124.575V121.675H285.655C282.3 121.675 280.625 122.792 280.625 125.019C280.625 126.066 281.031 126.902 281.854 127.522C282.671 128.147 283.8 128.457 285.237 128.457Z" fill="black"/>
<path d="M314.635 108.882C315.609 107.496 316.918 106.45 318.575 105.748C320.244 105.046 322.156 104.695 324.323 104.695V112.32C323.425 112.244 322.817 112.203 322.492 112.203C320.157 112.203 318.326 112.869 316.999 114.191C315.667 115.518 315.006 117.5 315.006 120.131V133.579H306.825V105.116H314.635V108.882Z" fill="black"/>
<path d="M357.044 119.453C357.044 119.564 356.986 120.307 356.882 121.675H335.559C335.93 123.441 336.834 124.832 338.271 125.862C339.708 126.879 341.493 127.381 343.625 127.381C345.091 127.381 346.389 127.165 347.519 126.726C348.66 126.294 349.72 125.598 350.694 124.645L355.051 129.392C352.392 132.468 348.515 134 343.416 134C340.23 134 337.414 133.38 334.957 132.129C332.512 130.866 330.629 129.129 329.302 126.913C327.969 124.686 327.308 122.166 327.308 119.36C327.308 116.57 327.963 114.062 329.278 111.829C330.588 109.584 332.39 107.841 334.679 106.59C336.962 105.327 339.528 104.695 342.373 104.695C345.12 104.695 347.617 105.298 349.859 106.496C352.096 107.701 353.852 109.42 355.121 111.665C356.401 113.899 357.044 116.494 357.044 119.453ZM342.42 110.94C340.566 110.94 339.001 111.472 337.738 112.53C336.486 113.594 335.722 115.033 335.444 116.857H349.326C349.048 115.068 348.272 113.63 347.009 112.554C345.757 111.478 344.228 110.94 342.42 110.94Z" fill="black"/>
<g clip-path="url(#clip0_221_5)">
<mask id="mask0_221_5" style="mask-type:luminance" maskUnits="userSpaceOnUse" x="0" y="0" width="114" height="134">
<path d="M0 0H114V134H0V0Z" fill="white"/>
</mask>
<g mask="url(#mask0_221_5)">
<mask id="mask1_221_5" style="mask-type:luminance" maskUnits="userSpaceOnUse" x="0" y="0" width="114" height="134">
<path d="M57 0L114 33.5V100.5L57 134L0 100.5V33.5L57 0Z" fill="white"/>
</mask>
<g mask="url(#mask1_221_5)">
<path d="M57 0L114 33.5V100.5L57 134L0 100.5V33.5L57 0Z" stroke="black" stroke-width="25.9939"/>
</g>
</g>
<path d="M69.7262 79.898H44.3012L39.4513 91.6935H26.4763L50.8763 36.6147H63.3763L87.8513 91.6935H74.5763L69.7262 79.898ZM65.7263 70.2152L57.0512 49.1395L48.3763 70.2152H65.7263Z" fill="black"/>
</g>
<defs>
<clipPath id="clip0_221_5">
<rect width="114" height="134" fill="white"/>
</clipPath>
</defs>
</svg>
